<svg xmlns="http://www.w3.org/2000/svg" shape-rendering="geometricPrecision" text-rendering="geometricPrecision" image-rendering="optimizeQuality" fill-rule="evenodd" clip-rule="evenodd" viewBox="0 0 512 465.548"><path d="M9.684 234.312H84.25c5.329 0 9.685 4.366 9.685 9.685v170.222c0 5.318-4.366 9.684-9.685 9.684H9.684c-5.319 0-9.684-4.359-9.684-9.684V243.997c0-5.329 4.359-9.685 9.684-9.685zM314.567 26.356c56.995 0 103.199 46.204 103.199 103.195 0 56.995-46.204 103.199-103.199 103.199-56.994 0-103.195-46.204-103.195-103.199 0-56.991 46.201-103.195 103.195-103.195zm-10.931 96.629h5.749c5.63 0 9.79-.943 12.461-2.827 2.687-1.863 4.021-4.826 4.021-8.847 0-3.985-1.373-6.828-4.101-8.516-2.747-1.688-6.986-2.532-12.736-2.532h-5.394v22.722zm0 14.48v32.254h-17.814V85.667h24.486c11.419 0 19.855 2.079 25.33 6.239 5.494 4.16 8.221 10.475 8.221 18.932 0 4.945-1.354 9.34-4.081 13.206-2.707 3.846-6.553 6.868-11.538 9.046 12.637 18.895 20.879 31.118 24.701 36.629h-19.776l-20.05-32.254h-9.479zM314.567 0c71.551 0 129.555 58.004 129.555 129.555 0 71.55-58.004 129.554-129.555 129.554-71.55 0-129.554-58.004-129.554-129.554C185.013 58.004 243.017 0 314.567 0zm0 11.78c65.044 0 117.776 52.731 117.776 117.775 0 65.043-52.732 117.775-117.776 117.775-65.043 0-117.774-52.732-117.774-117.775 0-65.044 52.731-117.775 117.774-117.775zM107.309 408.105l-.003-158.68a2.402 2.402 0 012.4-2.403h71.375l.642.086c15.295 2.767 30.55 8.281 45.771 15.48 15.003 7.103 30.023 15.88 45.036 25.313l55.091.023c7.934.51 14.768 3.293 19.786 7.41 3.866 3.175 6.659 7.166 8.06 11.552 1.413 4.438 1.406 9.267-.348 14.043-1.936 5.259-6 10.466-12.614 15.003-10.094 7.374-21.738 10.856-34.226 12.18l-.073.007c-12.256 1.288-25.323.497-38.542-.682-5.316-.258-8.794 1.993-10.373 5.018a9.005 9.005 0 00-1.016 3.965 9.235 9.235 0 00.834 4.058c1.479 3.19 5.001 5.712 10.681 5.739l.165.006c3.631.272 7.517-.109 11.297-.479 2.886-.282 5.729-.563 8.466-.567 16.138-.013 30.837-1.555 43.457-6.255 12.395-4.61 22.854-12.319 30.798-24.691l8.234-19.223a2.358 2.358 0 011.142-1.208l82.768-41.018c13.467-4.439 25.786-3.095 35.394 1.807 6.263 3.194 11.383 7.917 14.941 13.54 3.558 5.63 5.551 12.193 5.547 19.045-.003 9.741-4.028 20.07-13.259 29.182l-.275.232c-29.867 21.732-60.188 41.587-90.916 59.638-30.655 18.006-61.664 34.191-92.985 48.641-23.105 14.02-46.244 20.795-69.396 20.679-23.142-.119-46.261-7.132-69.343-20.669l-67.215-34.644a2.397 2.397 0 01-1.301-2.128z"/></svg>