<svg id="Layer_1" data-name="Layer 1" xmlns="http://www.w3.org/2000/svg" viewBox="0 0 122.88 118.71"><defs><style>.cls-1{fill:#050505;fill-rule:evenodd;}</style></defs><title>technician</title><path class="cls-1" d="M89.41,24.74l0,.09a147,147,0,0,0-26.6-1.78,166.76,166.76,0,0,0-30.24,2.86v0C24.69-11,99.76-5.77,89.41,24.74ZM47.72,116c-2.19,1.66-4.64,3-8.24,1.61a9.75,9.75,0,0,1-5.32-5.51c9.3,4.21,12.63-7.89,1.62-8.25,3.36-4,8.32-4,12.33-1a13.59,13.59,0,0,0,4,2.41,6.52,6.52,0,0,0,2,.21c2.56,0,11.61-.28,14.32-.34,5.11-.1,7.7-8,15-5.19a9.75,9.75,0,0,1,5.32,5.51c-9.3-4.21-12.63,7.89-1.62,8.25-3.36,4.05-8.32,4-12.33,1.05-1.75-1.31-2.86-2.84-6.32-2.74-2.41.1-11.43.25-13.83.42a6.93,6.93,0,0,0-2.2.38c-1.09.42-2.08,1.27-4.67,3.24ZM29.18,96.18a2.72,2.72,0,1,1-2.73,2.72,2.72,2.72,0,0,1,2.73-2.72Zm65.58,0A2.72,2.72,0,1,1,92,98.9a2.71,2.71,0,0,1,2.72-2.72Zm-49-30c-4.56,3.2-9.33,4.39-14,5.24l6.65,18.83H86.71l5.23-18.7c-4.15-.42-8-.75-11.06-2.35A13.45,13.45,0,0,1,77.2,65.6L77,62.49a18.92,18.92,0,0,0,3-3.07c2-2.5,2.77-6.51,3.73-9.78.19-.69.38-1.38.62-2.07,1.88-.19,3.53-2.31,4.53-4.92A17.61,17.61,0,0,0,90,38.08a6.94,6.94,0,0,0-.53-3.92,2.41,2.41,0,0,0-2-1.34,15.83,15.83,0,0,1,.75-4.13,146,146,0,0,0-25.4-1.62,162.26,162.26,0,0,0-29.45,2.79l.86,4.07a7.66,7.66,0,0,0-.62,4.57,15.56,15.56,0,0,0,1.5,5.15c1,2,2.42,3.34,4.07,3.34.16.46.35,1,.5,1.46,1.35,4,2.34,8.39,4.76,11.24A19,19,0,0,0,46.7,62l-.19,3.5c-.23.22-.47.43-.72.65ZM24.1,72.81C15.52,74.76,8,79,3.76,97.6L0,118.71H20.4V94.18a4,4,0,0,1,4-4h4.24c-.18-6.9-3.63-14.14-4.51-17.4Zm79.44,45.9h19.34l-4-22.19c-3.71-16.66-11.19-21.8-19-23.77-.79,3.27-3.21,11-3.34,17.46h3a4,4,0,0,1,4,4v24.53ZM53.33,13.34H69.55a.69.69,0,0,1,.69.69v3.74a.7.7,0,0,1-.69.7H53.33a.7.7,0,0,1-.69-.7V14a.69.69,0,0,1,.69-.69ZM74.58,63.72c-4.34,2.89-7,4.48-12.59,4.34s-8.31-1.93-12.67-4.68C49,81.59,75,82.67,74.58,63.72Zm6.5-14.65c.23-.81.5-1.66.8-2.65a.89.89,0,0,1,1-.66c1.27.23,2.54-1.61,3.42-3.84a16.1,16.1,0,0,0,1-4.11,5.67,5.67,0,0,0-.34-3c-.35-.63-1.29-.26-2-.88-3.64,9.65-35.36,14-48.34.73a6,6,0,0,0-.39,3.5,14.37,14.37,0,0,0,1.35,4.57c.8,1.57,1.84,2.65,2.88,2.38a.85.85,0,0,1,1,.54c.31.84.5,1.49.73,2.15,6.61,20.94,32.17,22.61,38.9,1.23Z"/></svg>